<svg xmlns="http://www.w3.org/2000/svg" version="1.1" xmlns:xlink="http://www.w3.org/1999/xlink"
    xmlns:svgjs="http://svgjs.dev/svgjs" viewBox="0 0 800 800" opacity="0.19" width="800" height="800">
    <style>
        line {
            stroke-dasharray: 500;
            stroke-dashoffset: 500;
            animation: dash 4s cubic-bezier(0.4, 0, 0.2, 1) forwards;
        }

        @keyframes dash {
            0% {
                stroke-dashoffset: 500;
            }

            40% {
                stroke-dashoffset: 0;
            }

            90% {
                stroke-dashoffset: -500;
            }

            100% {
                stroke-dashoffset: 0;
            }
        }
    </style>
    <g stroke-width="1" stroke="#291334" fill="none">
        <line x1="80" y1="0" x2="0" y2="80"></line>
        <line x1="160" y1="0" x2="80" y2="80"></line>
        <line x1="240" y1="0" x2="160" y2="80"></line>
        <line x1="320" y1="0" x2="240" y2="80"></line>
        <line x1="400" y1="0" x2="320" y2="80"></line>
        <line x1="480" y1="0" x2="400" y2="80"></line>
        <line x1="560" y1="0" x2="480" y2="80"></line>
        <line x1="640" y1="0" x2="560" y2="80"></line>
        <line x1="720" y1="0" x2="640" y2="80"></line>
        <line x1="800" y1="0" x2="720" y2="80"></line>
        <line x1="880" y1="0" x2="800" y2="80"></line>
        <line x1="80" y1="80" x2="0" y2="160"></line>
        <line x1="160" y1="80" x2="80" y2="160"></line>
        <line x1="240" y1="80" x2="160" y2="160"></line>
        <line x1="320" y1="80" x2="240" y2="160"></line>
        <line x1="400" y1="80" x2="320" y2="160"></line>
        <line x1="480" y1="80" x2="400" y2="160"></line>
        <line x1="560" y1="80" x2="480" y2="160"></line>
        <line x1="640" y1="80" x2="560" y2="160"></line>
        <line x1="720" y1="80" x2="640" y2="160"></line>
        <line x1="800" y1="80" x2="720" y2="160"></line>
        <line x1="880" y1="80" x2="800" y2="160"></line>
        <line x1="80" y1="160" x2="0" y2="240"></line>
        <line x1="160" y1="160" x2="80" y2="240"></line>
        <line x1="240" y1="160" x2="160" y2="240"></line>
        <line x1="320" y1="160" x2="240" y2="240"></line>
        <line x1="400" y1="160" x2="320" y2="240"></line>
        <line x1="480" y1="160" x2="400" y2="240"></line>
        <line x1="560" y1="160" x2="480" y2="240"></line>
        <line x1="640" y1="160" x2="560" y2="240"></line>
        <line x1="720" y1="160" x2="640" y2="240"></line>
        <line x1="800" y1="160" x2="720" y2="240"></line>
        <line x1="880" y1="160" x2="800" y2="240"></line>
        <line x1="80" y1="240" x2="0" y2="320"></line>
        <line x1="160" y1="240" x2="80" y2="320"></line>
        <line x1="240" y1="240" x2="160" y2="320"></line>
        <line x1="320" y1="240" x2="240" y2="320"></line>
        <line x1="400" y1="240" x2="320" y2="320"></line>
        <line x1="480" y1="240" x2="400" y2="320"></line>
        <line x1="560" y1="240" x2="480" y2="320"></line>
        <line x1="640" y1="240" x2="560" y2="320"></line>
        <line x1="720" y1="240" x2="640" y2="320"></line>
        <line x1="800" y1="240" x2="720" y2="320"></line>
        <line x1="880" y1="240" x2="800" y2="320"></line>
        <line x1="80" y1="320" x2="0" y2="400"></line>
        <line x1="160" y1="320" x2="80" y2="400"></line>
        <line x1="240" y1="320" x2="160" y2="400"></line>
        <line x1="320" y1="320" x2="240" y2="400"></line>
        <line x1="400" y1="320" x2="320" y2="400"></line>
        <line x1="480" y1="320" x2="400" y2="400"></line>
        <line x1="560" y1="320" x2="480" y2="400"></line>
        <line x1="640" y1="320" x2="560" y2="400"></line>
        <line x1="720" y1="320" x2="640" y2="400"></line>
        <line x1="800" y1="320" x2="720" y2="400"></line>
        <line x1="880" y1="320" x2="800" y2="400"></line>
        <line x1="80" y1="400" x2="0" y2="480"></line>
        <line x1="160" y1="400" x2="80" y2="480"></line>
        <line x1="240" y1="400" x2="160" y2="480"></line>
        <line x1="320" y1="400" x2="240" y2="480"></line>
        <line x1="400" y1="400" x2="320" y2="480"></line>
        <line x1="480" y1="400" x2="400" y2="480"></line>
        <line x1="560" y1="400" x2="480" y2="480"></line>
        <line x1="640" y1="400" x2="560" y2="480"></line>
        <line x1="720" y1="400" x2="640" y2="480"></line>
        <line x1="800" y1="400" x2="720" y2="480"></line>
        <line x1="880" y1="400" x2="800" y2="480"></line>
        <line x1="80" y1="480" x2="0" y2="560"></line>
        <line x1="160" y1="480" x2="80" y2="560"></line>
        <line x1="240" y1="480" x2="160" y2="560"></line>
        <line x1="320" y1="480" x2="240" y2="560"></line>
        <line x1="400" y1="480" x2="320" y2="560"></line>
        <line x1="480" y1="480" x2="400" y2="560"></line>
        <line x1="560" y1="480" x2="480" y2="560"></line>
        <line x1="640" y1="480" x2="560" y2="560"></line>
        <line x1="720" y1="480" x2="640" y2="560"></line>
        <line x1="800" y1="480" x2="720" y2="560"></line>
        <line x1="880" y1="480" x2="800" y2="560"></line>
        <line x1="80" y1="560" x2="0" y2="640"></line>
        <line x1="160" y1="560" x2="80" y2="640"></line>
        <line x1="240" y1="560" x2="160" y2="640"></line>
        <line x1="320" y1="560" x2="240" y2="640"></line>
        <line x1="400" y1="560" x2="320" y2="640"></line>
        <line x1="480" y1="560" x2="400" y2="640"></line>
        <line x1="560" y1="560" x2="480" y2="640"></line>
        <line x1="640" y1="560" x2="560" y2="640"></line>
        <line x1="720" y1="560" x2="640" y2="640"></line>
        <line x1="800" y1="560" x2="720" y2="640"></line>
        <line x1="880" y1="560" x2="800" y2="640"></line>
        <line x1="80" y1="640" x2="0" y2="720"></line>
        <line x1="160" y1="640" x2="80" y2="720"></line>
        <line x1="240" y1="640" x2="160" y2="720"></line>
        <line x1="320" y1="640" x2="240" y2="720"></line>
        <line x1="400" y1="640" x2="320" y2="720"></line>
        <line x1="480" y1="640" x2="400" y2="720"></line>
        <line x1="560" y1="640" x2="480" y2="720"></line>
        <line x1="640" y1="640" x2="560" y2="720"></line>
        <line x1="720" y1="640" x2="640" y2="720"></line>
        <line x1="800" y1="640" x2="720" y2="720"></line>
        <line x1="880" y1="640" x2="800" y2="720"></line>
        <line x1="80" y1="720" x2="0" y2="800"></line>
        <line x1="160" y1="720" x2="80" y2="800"></line>
        <line x1="240" y1="720" x2="160" y2="800"></line>
        <line x1="320" y1="720" x2="240" y2="800"></line>
        <line x1="400" y1="720" x2="320" y2="800"></line>
        <line x1="480" y1="720" x2="400" y2="800"></line>
        <line x1="560" y1="720" x2="480" y2="800"></line>
        <line x1="640" y1="720" x2="560" y2="800"></line>
        <line x1="720" y1="720" x2="640" y2="800"></line>
        <line x1="800" y1="720" x2="720" y2="800"></line>
        <line x1="880" y1="720" x2="800" y2="800"></line>
        <line x1="80" y1="800" x2="0" y2="880"></line>
        <line x1="160" y1="800" x2="80" y2="880"></line>
        <line x1="240" y1="800" x2="160" y2="880"></line>
        <line x1="320" y1="800" x2="240" y2="880"></line>
        <line x1="400" y1="800" x2="320" y2="880"></line>
        <line x1="480" y1="800" x2="400" y2="880"></line>
        <line x1="560" y1="800" x2="480" y2="880"></line>
        <line x1="640" y1="800" x2="560" y2="880"></line>
        <line x1="720" y1="800" x2="640" y2="880"></line>
        <line x1="800" y1="800" x2="720" y2="880"></line>
        <line x1="880" y1="800" x2="800" y2="880"></line>
    </g>
</svg>